<?xml version="1.0" standalone="no"?>
<!DOCTYPE svg PUBLIC "-//W3C//DTD SVG 20010904//EN"
 "http://www.w3.org/TR/2001/REC-SVG-20010904/DTD/svg10.dtd">
<svg version="1.0" xmlns="http://www.w3.org/2000/svg"
 width="380.000000pt" height="380.000000pt" viewBox="0 0 380.000000 380.000000"
 preserveAspectRatio="xMidYMid meet">
<metadata>
Created by potrace 1.14, written by Peter Selinger 2001-2017
</metadata>
<g transform="translate(0.000000,380.000000) scale(0.100000,-0.100000)"
fill="#000000" stroke="none">
<path d="M1989 3760 c-50 -26 -111 -98 -152 -178 -116 -229 -133 -443 -63
-787 9 -44 18 -90 21 -103 2 -13 7 -32 10 -42 4 -13 -10 -33 -52 -72 -123
-114 -242 -239 -299 -314 -32 -44 -64 -85 -71 -91 -27 -29 -124 -244 -143
-318 -70 -273 -5 -526 185 -719 112 -113 231 -182 380 -222 73 -19 269 -26
333 -12 23 5 34 4 37 -5 2 -6 20 -92 40 -191 32 -153 37 -191 33 -270 -8 -153
-66 -264 -163 -311 -95 -46 -250 -49 -320 -5 -41 26 -40 31 11 37 80 9 159 75
183 152 45 152 -60 295 -216 293 -161 -2 -257 -170 -191 -333 78 -196 262
-290 471 -242 169 38 277 156 307 332 16 95 8 168 -41 394 -21 99 -38 181 -36
182 1 1 24 14 50 29 87 50 185 160 231 258 37 83 48 128 53 228 8 170 -23 261
-133 379 -102 110 -231 176 -369 188 l-73 6 -7 41 c-4 22 -9 48 -11 56 -2 8
-14 67 -28 130 -14 63 -21 119 -17 125 4 5 28 35 53 65 65 82 150 214 195 305
38 75 90 207 98 248 2 10 6 26 9 35 5 17 13 60 22 117 9 59 5 233 -6 296 -45
249 -194 392 -331 319z m198 -277 c16 -20 33 -103 33 -157 0 -75 -47 -235
-101 -344 -45 -90 -65 -117 -146 -200 -71 -71 -97 -92 -103 -81 -28 53 -53
337 -36 415 4 16 8 38 10 49 10 48 41 124 71 175 80 132 223 207 272 143z
m-281 -1315 c14 -62 26 -122 28 -132 2 -16 -11 -24 -76 -47 -113 -39 -193 -98
-279 -205 -24 -30 -59 -108 -79 -175 -23 -77 -22 -244 3 -302 9 -20 17 -41 18
-45 4 -17 24 -59 42 -87 15 -24 11 -21 -18 10 -42 47 -108 180 -124 250 -26
118 -16 246 27 345 25 57 90 145 179 240 108 116 150 161 200 217 26 29 49 50
51 48 2 -2 15 -54 28 -117z m284 -238 c255 -86 396 -366 311 -618 -28 -83 -62
-135 -131 -202 -65 -63 -135 -100 -234 -125 -288 -71 -588 167 -590 469 0 90
4 116 34 196 24 62 53 103 126 175 122 120 315 162 484 105z"/>
<path d="M2011 1866 c-54 -17 -78 -61 -72 -127 0 -9 12 -28 26 -41 30 -31 40
-85 16 -90 -9 -2 -54 -3 -101 -2 -110 3 -148 -8 -166 -51 -12 -29 -17 -33 -43
-29 -18 3 -30 0 -33 -8 -3 -7 -5 -67 -4 -133 l1 -120 35 -3 c29 -2 38 -8 47
-32 6 -17 23 -34 38 -40 17 -6 133 -10 297 -10 l270 1 24 24 c13 13 24 31 24
39 0 10 12 16 38 18 l37 3 3 110 c4 137 -1 157 -32 151 -29 -5 -41 3 -50 32
-13 39 -52 50 -166 49 l-104 -1 -7 26 c-5 20 -2 32 13 48 50 54 57 114 17 156
-31 33 -68 44 -108 30z m85 -54 c34 -44 1 -112 -55 -112 -66 0 -93 69 -45 117
20 20 32 24 56 19 17 -3 37 -14 44 -24z m-46 -167 c0 -8 0 -18 1 -22 0 -4 -4
-9 -10 -11 -6 -2 -11 8 -11 22 0 14 5 26 10 26 6 0 10 -7 10 -15z m279 -97
c12 -35 7 -303 -6 -319 -15 -18 -543 -20 -565 -2 -10 9 -13 46 -13 165 0 84 4
159 8 166 6 9 76 12 288 12 l279 0 9 -22z m-621 -155 c-3 -83 -5 -96 -20 -99
-19 -2 -19 1 -19 111 0 83 0 85 21 85 20 0 21 -5 18 -97z m706 4 c1 -72 -2
-91 -15 -98 -9 -4 -19 -5 -23 -2 -3 3 -6 49 -6 100 0 91 1 94 22 91 20 -3 21
-9 22 -91z"/>
<path d="M1826 1486 c-57 -62 8 -151 89 -120 22 9 43 55 36 79 -12 40 -28 56
-63 62 -31 4 -41 1 -62 -21z m89 -35 c12 -40 -20 -70 -56 -51 -18 10 -26 50
-12 63 14 15 62 7 68 -12z"/>
<path d="M2162 1498 c-23 -12 -38 -49 -33 -83 9 -55 94 -74 130 -29 28 35 26
65 -4 98 -25 27 -55 32 -93 14z m79 -49 c7 -14 5 -23 -11 -39 -24 -24 -34 -25
-54 -4 -22 21 -20 40 5 58 25 17 45 12 60 -15z"/>
<path d="M1920 1291 c0 -21 31 -27 128 -25 104 1 119 4 107 23 -8 13 -235 15
-235 2z"/>
</g>
</svg>
